<svg width="117" height="22" viewBox="0 0 117 22" fill="none" xmlns="http://www.w3.org/2000/svg">
<path d="M0.192 1.728H8.664V3.72H5.568V18H3.288V3.72H0.192V1.728ZM16.0359 4.2H18.3159V18H16.1559V17.352C15.9399 17.472 14.9319 18.048 13.4919 18.048C11.3319 18.048 10.2039 16.848 10.2039 14.688V4.2H12.4839V14.376C12.4839 15.456 13.0119 16.008 14.0679 16.008C15.1479 16.008 15.9399 15.456 16.0359 15.408V4.2ZM21.0293 7.728C21.0293 5.544 22.2533 3.96 25.1093 3.96C27.9893 3.96 29.1413 5.544 29.1413 7.728V12.12H23.2373V14.232C23.2373 15.48 23.8853 16.104 25.8293 16.104C27.0773 16.104 28.1333 15.864 28.7573 15.672V17.736C28.0373 17.928 27.1973 18.12 25.6853 18.12C22.4693 18.12 21.0293 16.824 21.0293 14.352V7.728ZM23.2373 7.752V10.296H27.0053V7.752C27.0053 6.624 26.4533 5.88 25.1093 5.88C23.7653 5.88 23.2373 6.624 23.2373 7.752ZM37.2909 0.527999H39.5709V18H37.3389V17.136C36.9309 17.52 36.1629 18.072 34.7469 18.072C32.5629 18.072 31.4589 16.824 31.4589 14.688V7.992C31.4589 5.616 32.8989 4.2 35.3709 4.2H37.2909V0.527999ZM37.2909 15.36V6.24H35.6589C34.4109 6.24 33.7149 6.816 33.7149 8.064V14.424C33.7149 15.504 34.2429 16.032 35.2989 16.032C36.2109 16.032 36.9309 15.696 37.2909 15.36ZM42.2871 7.728C42.2871 5.52 43.5111 3.96 46.3671 3.96C49.2231 3.96 50.4711 5.52 50.4711 7.728V14.472C50.4711 16.68 49.2231 18.24 46.3671 18.24C43.5111 18.24 42.2871 16.68 42.2871 14.472V7.728ZM48.2151 7.776C48.2151 6.672 47.7111 5.928 46.3671 5.928C45.0231 5.928 44.5191 6.672 44.5191 7.776V14.424C44.5191 15.528 45.0231 16.272 46.3671 16.272C47.7111 16.272 48.2151 15.528 48.2151 14.424V7.776ZM55.3511 4.824C55.9031 4.584 56.9591 4.152 58.1111 4.152C59.9591 4.152 61.2551 5.184 61.2551 7.272V18H58.9511V7.656C58.9511 6.672 58.4471 6.24 57.5351 6.24C56.7671 6.24 56.0711 6.456 55.4471 6.768V18H53.1911V4.2H55.3511V4.824ZM67.3404 1.728H75.8124V3.72H72.7164V18H70.4364V3.72H67.3404V1.728ZM83.1844 4.2H85.4644V18H83.3044V17.352C83.0884 17.472 82.0804 18.048 80.6404 18.048C78.4804 18.048 77.3524 16.848 77.3524 14.688V4.2H79.6324V14.376C79.6324 15.456 80.1604 16.008 81.2164 16.008C82.2964 16.008 83.0884 15.456 83.1844 15.408V4.2ZM88.1777 7.728C88.1777 5.52 89.4017 3.96 92.2577 3.96C95.1137 3.96 96.3617 5.52 96.3617 7.728V14.472C96.3617 16.68 95.1137 18.24 92.2577 18.24C89.4017 18.24 88.1777 16.68 88.1777 14.472V7.728ZM94.1057 7.776C94.1057 6.672 93.6017 5.928 92.2577 5.928C90.9137 5.928 90.4097 6.672 90.4097 7.776V14.424C90.4097 15.528 90.9137 16.272 92.2577 16.272C93.6017 16.272 94.1057 15.528 94.1057 14.424V7.776ZM104.722 4.2H106.954L103.33 21.576H101.146L101.866 18H100.906L97.9778 4.2H100.234L101.482 10.272C102.13 13.488 102.466 16.32 102.466 16.32C102.466 16.32 102.85 13.464 103.474 10.32L104.722 4.2ZM108.568 7.728C108.568 5.52 109.792 3.96 112.648 3.96C115.504 3.96 116.752 5.52 116.752 7.728V14.472C116.752 16.68 115.504 18.24 112.648 18.24C109.792 18.24 108.568 16.68 108.568 14.472V7.728ZM114.496 7.776C114.496 6.672 113.992 5.928 112.648 5.928C111.304 5.928 110.8 6.672 110.8 7.776V14.424C110.8 15.528 111.304 16.272 112.648 16.272C113.992 16.272 114.496 15.528 114.496 14.424V7.776Z" fill="white"/>
</svg>
